<?xml version="1.0"?>
<svg xmlns="http://www.w3.org/2000/svg" version="1.1" width="1090.199951171875pt" height="328.20001220703125pt" viewBox="-613.4269145965576 -183.68476209640505 1090.1999999999998 328.20000000000005" preserveAspectRatio="none" xmlns:xlink="http://www.w3.org/1999/xlink">
  <defs>
  </defs>
  <path d="M-204.14703369140625,-106.69285583496094 L-191.58863830566406,-105.79582214355469 " stroke="#6E6E6E" fill="none" stroke-width="1" stroke-opacity="1" />
  <path d="M-185.9031219482422,-105.38972473144531 L-191.74681091308594,-103.58147430419922 L-191.4304656982422,-108.01018524169922 L-185.9031219482422,-105.38972473144531 " stroke="none" fill="#6E6E6E" fill-rule="evenodd" stroke-width="0" fill-opacity="1" />
  <path d="M-185.9031219482422,-105.38972473144531 L-191.74681091308594,-103.58147430419922 L-191.4304656982422,-108.01018524169922 L-185.9031219482422,-105.38972473144531 " stroke="#6E6E6E" fill="none" stroke-width="1" stroke-opacity="1" />
  <path d="M-343.16290283203125,-133.4773712158203 L-284.09344482421875,-119.4796371459961 " stroke="#6E6E6E" fill="none" stroke-width="1" stroke-opacity="1" />
  <path d="M-278.54705810546875,-118.1653060913086 L-284.6053466796875,-117.31946563720703 L-283.58154296875,-121.63981628417969 L-278.54705810546875,-118.1653060913086 " stroke="none" fill="#6E6E6E" fill-rule="evenodd" stroke-width="0" fill-opacity="1" />
  <path d="M-278.54705810546875,-118.1653060913086 L-284.6053466796875,-117.31946563720703 L-283.58154296875,-121.63981628417969 L-278.54705810546875,-118.1653060913086 " stroke="#6E6E6E" fill="none" stroke-width="1" stroke-opacity="1" />
  <path d="M-196.1444549560547,33.89999771118164 L-156.24447631835938,33.89999771118164 " stroke="#6E6E6E" fill="none" stroke-width="1" stroke-opacity="1" />
  <path d="M-150.54446411132812,33.89999771118164 L-156.24447631835938,36.119998931884766 L-156.24447631835938,31.68000030517578 L-150.54446411132812,33.89999771118164 " stroke="none" fill="#6E6E6E" fill-rule="evenodd" stroke-width="0" fill-opacity="1" />
  <path d="M-150.54446411132812,33.89999771118164 L-156.24447631835938,36.119998931884766 L-156.24447631835938,31.68000030517578 L-150.54446411132812,33.89999771118164 " stroke="#6E6E6E" fill="none" stroke-width="1" stroke-opacity="1" />
  <path d="M-337.8441467285156,30.35763931274414 L-276.2412109375,32.44587326049805 " stroke="#6E6E6E" fill="none" stroke-width="1" stroke-opacity="1" />
  <path d="M-270.54449462890625,32.638980865478516 L-276.3164367675781,34.66459655761719 L-276.166015625,30.22714614868164 L-270.54449462890625,32.638980865478516 " stroke="none" fill="#6E6E6E" fill-rule="evenodd" stroke-width="0" fill-opacity="1" />
  <path d="M-270.54449462890625,32.638980865478516 L-276.3164367675781,34.66459655761719 L-276.166015625,30.22714614868164 L-270.54449462890625,32.638980865478516 " stroke="#6E6E6E" fill="none" stroke-width="1" stroke-opacity="1" />
  <path d="M-15,-47.43178939819336 L-4.399503231048584,-47.78279495239258 " stroke="#6E6E6E" fill="none" stroke-width="1" stroke-opacity="1" />
  <path d="M1.2973747253417969,-47.971435546875 L-4.326034069061279,-45.56401443481445 L-4.472973346710205,-50.001583099365234 L1.2973747253417969,-47.971435546875 " stroke="none" fill="#6E6E6E" fill-rule="evenodd" stroke-width="0" fill-opacity="1" />
  <path d="M1.2973747253417969,-47.971435546875 L-4.326034069061279,-45.56401443481445 L-4.472973346710205,-50.001583099365234 L1.2973747253417969,-47.971435546875 " stroke="#6E6E6E" fill="none" stroke-width="1" stroke-opacity="1" />
  <path d="M-121.62316131591797,-86.77880859375 L-92.3430404663086,-69.66416931152344 " stroke="#6E6E6E" fill="none" stroke-width="1" stroke-opacity="1" />
  <path d="M-87.42203521728516,-66.78776550292969 L-93.46332550048828,-67.74756622314453 L-91.22276306152344,-71.58077239990234 L-87.42203521728516,-66.78776550292969 " stroke="none" fill="#6E6E6E" fill-rule="evenodd" stroke-width="0" fill-opacity="1" />
  <path d="M-87.42203521728516,-66.78776550292969 L-93.46332550048828,-67.74756622314453 L-91.22276306152344,-71.58077239990234 L-87.42203521728516,-66.78776550292969 " stroke="#6E6E6E" fill="none" stroke-width="1" stroke-opacity="1" />
  <path d="M-97.13207244873047,12.661561012268066 L-73.75003051757812,-17.96919822692871 " stroke="#6E6E6E" fill="none" stroke-width="1" stroke-opacity="1" />
  <path d="M-70.29143524169922,-22.499998092651367 L-71.98540496826172,-16.622167587280273 L-75.51465606689453,-19.31623077392578 L-70.29143524169922,-22.499998092651367 " stroke="none" fill="#6E6E6E" fill-rule="evenodd" stroke-width="0" fill-opacity="1" />
  <path d="M-70.29143524169922,-22.499998092651367 L-71.98540496826172,-16.622167587280273 L-75.51465606689453,-19.31623077392578 L-70.29143524169922,-22.499998092651367 " stroke="#6E6E6E" fill="none" stroke-width="1" stroke-opacity="1" />
  <path d="M179.0932159423828,-47.618743896484375 L200.41073608398438,-47.7448844909668 " stroke="#6E6E6E" fill="none" stroke-width="1" stroke-opacity="1" />
  <path d="M206.1106414794922,-47.77861022949219 L200.4238739013672,-45.52492141723633 L200.39759826660156,-49.96484375 L206.1106414794922,-47.77861022949219 " stroke="none" fill="#6E6E6E" fill-rule="evenodd" stroke-width="0" fill-opacity="1" />
  <path d="M206.1106414794922,-47.77861022949219 L200.4238739013672,-45.52492141723633 L200.39759826660156,-49.96484375 L206.1106414794922,-47.77861022949219 " stroke="#6E6E6E" fill="none" stroke-width="1" stroke-opacity="1" />
  <path d="M75.54874420166016,-48.55339813232422 L98.99409484863281,-48.14531326293945 " stroke="#6E6E6E" fill="none" stroke-width="1" stroke-opacity="1" />
  <path d="M104.69322204589844,-48.046119689941406 L98.95545196533203,-45.92565155029297 L99.03272247314453,-50.3649787902832 L104.69322204589844,-48.046119689941406 " stroke="none" fill="#6E6E6E" fill-rule="evenodd" stroke-width="0" fill-opacity="1" />
  <path d="M104.69322204589844,-48.046119689941406 L98.95545196533203,-45.92565155029297 L99.03272247314453,-50.3649787902832 L104.69322204589844,-48.046119689941406 " stroke="#6E6E6E" fill="none" stroke-width="1" stroke-opacity="1" />
  <path d="M106.33950805664062,-110.95745086669922 L125.8531494140625,-76.0732192993164 " stroke="#6E6E6E" fill="none" stroke-width="1" stroke-opacity="1" />
  <path d="M128.63584899902344,-71.09862518310547 L123.9156723022461,-74.98942565917969 L127.79061889648438,-77.1570053100586 L128.63584899902344,-71.09862518310547 " stroke="none" fill="#6E6E6E" fill-rule="evenodd" stroke-width="0" fill-opacity="1" />
  <path d="M128.63584899902344,-71.09862518310547 L123.9156723022461,-74.98942565917969 L127.79061889648438,-77.1570053100586 L128.63584899902344,-71.09862518310547 " stroke="#6E6E6E" fill="none" stroke-width="1" stroke-opacity="1" />
  <path d="M-346.6510925292969,-76.07209777832031 L-283.98211669921875,-95.87657928466797 " stroke="#6E6E6E" fill="none" stroke-width="1" stroke-opacity="1" />
  <path d="M-278.54705810546875,-97.59415435791016 L-283.31317138671875,-93.759765625 L-284.65106201171875,-97.99339294433594 L-278.54705810546875,-97.59415435791016 " stroke="none" fill="#6E6E6E" fill-rule="evenodd" stroke-width="0" fill-opacity="1" />
  <path d="M-278.54705810546875,-97.59415435791016 L-283.31317138671875,-93.759765625 L-284.65106201171875,-97.99339294433594 L-278.54705810546875,-97.59415435791016 " stroke="#6E6E6E" fill="none" stroke-width="1" stroke-opacity="1" />
  <path d="M-336.81695556640625,88.45821380615234 L-274.5992126464844,55.65249252319336 " stroke="#6E6E6E" fill="none" stroke-width="1" stroke-opacity="1" />
  <path d="M-269.5571594238281,52.99395751953125 L-273.5637512207031,57.616233825683594 L-275.6346130371094,53.68874740600586 L-269.5571594238281,52.99395751953125 " stroke="none" fill="#6E6E6E" fill-rule="evenodd" stroke-width="0" fill-opacity="1" />
  <path d="M-269.5571594238281,52.99395751953125 L-273.5637512207031,57.616233825683594 L-275.6346130371094,53.68874740600586 L-269.5571594238281,52.99395751953125 " stroke="#6E6E6E" fill="none" stroke-width="1" stroke-opacity="1" />
  <path d="M-270.0431213378906,-133.04998779296875 L-212.6510009765625,-133.04998779296875 L-212.65101623535156,-133.04998779296875 C-207.95443725585938,-133.0500030517578 -204.14707946777344,-129.24266052246094 -204.14707946777344,-124.54605865478516 C-204.14707946777344,-124.54605865478516 -204.14707946777344,-124.54605102539062 -204.14707946777344,-124.54605102539062 L-204.14706420898438,-124.54605102539062 L-204.14706420898438,-94.15392303466797 L-204.14707946777344,-94.1539306640625 C-204.14707946777344,-89.45733642578125 -207.95440673828125,-85.64999389648438 -212.6510009765625,-85.64999389648438 L-212.6510009765625,-85.64999389648438 L-270.0431213378906,-85.64999389648438 L-270.0431213378906,-85.64999389648438 C-274.7397155761719,-85.64999389648438 -278.54705810546875,-89.45732879638672 -278.54705810546875,-94.15392303466797 L-278.54705810546875,-124.54605102539062 L-278.5470886230469,-124.54605102539062 C-278.5470886230469,-129.24264526367188 -274.73974609375,-133.04998779296875 -270.04315185546875,-133.0500030517578 " stroke="none" fill="#E7E7E7" fill-rule="evenodd" stroke-width="0" fill-opacity="1" />
  <text x="9.516688346862793" y="35.284881591796875" dx="0" dy="0" font-family="Segoe UI" font-size="6.600000157356266pt" fill="#000000" style="text-anchor:start" transform="matrix(0.750000 0.000000 0.000000 0.750000 -278.54705810546875 -133.04998779296875)">Buffer the cities</text>
  <path d="M-270.0431213378906,-133.04998779296875 L-212.6510009765625,-133.04998779296875 L-212.65101623535156,-133.04998779296875 C-207.95443725585938,-133.0500030517578 -204.14707946777344,-129.24266052246094 -204.14707946777344,-124.54605865478516 C-204.14707946777344,-124.54605865478516 -204.14707946777344,-124.54605102539062 -204.14707946777344,-124.54605102539062 L-204.14706420898438,-124.54605102539062 L-204.14706420898438,-94.15392303466797 L-204.14707946777344,-94.1539306640625 C-204.14707946777344,-89.45733642578125 -207.95440673828125,-85.64999389648438 -212.6510009765625,-85.64999389648438 L-212.6510009765625,-85.64999389648438 L-270.0431213378906,-85.64999389648438 L-270.0431213378906,-85.64999389648438 C-274.7397155761719,-85.64999389648438 -278.54705810546875,-89.45732879638672 -278.54705810546875,-94.15392303466797 L-278.54705810546875,-124.54605102539062 L-278.5470886230469,-124.54605102539062 C-278.5470886230469,-129.24264526367188 -274.73974609375,-133.04998779296875 -270.04315185546875,-133.0500030517578 " stroke="none" fill="none" stroke-width="0.6" stroke-opacity="0" />
  <path d="M-111.74706268310547,-102.75001525878906 C-111.74706268310547,-89.6608657836914 -128.40206909179688,-79.05001068115234 -148.94703674316406,-79.05001068115234 C-169.49203491210938,-79.05000305175781 -186.1470489501953,-89.66085052490234 -186.14706420898438,-102.74999237060547 L-186.14706420898438,-102.74999237060547 C-186.14707946777344,-115.83914184570312 -169.49208068847656,-126.44999694824219 -148.9470977783203,-126.45000457763672 C-128.402099609375,-126.45001983642578 -111.74708557128906,-115.83917236328125 -111.74706268310547,-102.75000762939453 C-111.74706268310547,-102.75000762939453 -111.74706268310547,-102.75000762939453 -111.74706268310547,-102.75000762939453 " stroke="none" fill="#E7E7E7" fill-rule="evenodd" stroke-width="0" fill-opacity="1" />
  <text x="18.01002311706543" y="35.284881591796875" dx="0" dy="0" font-family="Segoe UI" font-size="6.600000157356266pt" fill="#000000" style="text-anchor:start" transform="matrix(0.750000 0.000000 0.000000 0.750000 -186.1470489501953 -126.45000457763672)">Buffer Cities</text>
  <path d="M-111.74706268310547,-102.75001525878906 C-111.74706268310547,-89.6608657836914 -128.40206909179688,-79.05001068115234 -148.94703674316406,-79.05001068115234 C-169.49203491210938,-79.05000305175781 -186.1470489501953,-89.66085052490234 -186.14706420898438,-102.74999237060547 L-186.14706420898438,-102.74999237060547 C-186.14707946777344,-115.83914184570312 -169.49208068847656,-126.44999694824219 -148.9470977783203,-126.45000457763672 C-128.402099609375,-126.45001983642578 -111.74708557128906,-115.83917236328125 -111.74706268310547,-102.75000762939453 C-111.74706268310547,-102.75000762939453 -111.74706268310547,-102.75000762939453 -111.74706268310547,-102.75000762939453 " stroke="none" fill="none" stroke-width="0.6" stroke-opacity="0" />
  <path d="M-340.7970886230469,-141.73204040527344 C-340.7970886230469,-128.64288330078125 -357.45208740234375,-118.03202819824219 -377.9970397949219,-118.03202819824219 C-398.54205322265625,-118.03202056884766 -415.1970520019531,-128.6428680419922 -415.19708251953125,-141.7320098876953 L-415.19708251953125,-141.7320098876953 C-415.19708251953125,-154.8211669921875 -398.5420837402344,-165.43202209472656 -377.9971008300781,-165.43202209472656 C-357.4521179199219,-165.43203735351562 -340.7970886230469,-154.82119750976562 -340.7970886230469,-141.73202514648438 C-340.7970886230469,-141.73202514648438 -340.7970886230469,-141.73202514648438 -340.7970886230469,-141.73202514648438 " stroke="none" fill="#E7E7E7" fill-rule="evenodd" stroke-width="0" fill-opacity="1" />
  <text x="33.76368713378906" y="35.284881591796875" dx="0" dy="0" font-family="Segoe UI" font-size="6.600000157356266pt" fill="#000000" style="text-anchor:start" transform="matrix(0.750000 0.000000 0.000000 0.750000 -415.1970520019531 -165.43202209472656)">Cities</text>
  <path d="M-340.7970886230469,-141.73204040527344 C-340.7970886230469,-128.64288330078125 -357.45208740234375,-118.03202819824219 -377.9970397949219,-118.03202819824219 C-398.54205322265625,-118.03202056884766 -415.1970520019531,-128.6428680419922 -415.19708251953125,-141.7320098876953 L-415.19708251953125,-141.7320098876953 C-415.19708251953125,-154.8211669921875 -398.5420837402344,-165.43202209472656 -377.9971008300781,-165.43202209472656 C-357.4521179199219,-165.43203735351562 -340.7970886230469,-154.82119750976562 -340.7970886230469,-141.73202514648438 C-340.7970886230469,-141.73202514648438 -340.7970886230469,-141.73202514648438 -340.7970886230469,-141.73202514648438 " stroke="none" fill="none" stroke-width="0.6" stroke-opacity="0" />
  <path d="M-262.04052734375,10.200000762939453 L-204.64840698242188,10.200000762939453 L-204.64842224121094,10.200000762939453 C-199.95184326171875,10.199993133544922 -196.1444854736328,14.007328987121582 -196.1444854736328,18.703933715820312 C-196.1444854736328,18.703935623168945 -196.1444854736328,18.703937530517578 -196.1444854736328,18.70393943786621 L-196.14447021484375,18.703937530517578 L-196.14447021484375,49.096065521240234 L-196.1444854736328,49.0960578918457 C-196.1444854736328,53.79265213012695 -199.95181274414062,57.59999465942383 -204.64840698242188,57.599998474121094 L-204.64840698242188,57.599998474121094 L-262.04052734375,57.599998474121094 L-262.04052734375,57.599998474121094 C-266.73712158203125,57.599998474121094 -270.5444641113281,53.792659759521484 -270.5444641113281,49.096065521240234 L-270.5444641113281,18.703937530517578 L-270.54449462890625,18.703941345214844 C-270.54449462890625,14.00734806060791 -266.7371520996094,10.200003623962402 -262.0405578613281,10.199999809265137 " stroke="none" fill="#E7E7E7" fill-rule="evenodd" stroke-width="0" fill-opacity="1" />
  <text x="7.0700225830078125" y="35.284881591796875" dx="0" dy="0" font-family="Segoe UI" font-size="6.600000157356266pt" fill="#000000" style="text-anchor:start" transform="matrix(0.750000 0.000000 0.000000 0.750000 -270.5444641113281 10.200000762939453)">Buffer the Roads</text>
  <path d="M-262.04052734375,10.200000762939453 L-204.64840698242188,10.200000762939453 L-204.64842224121094,10.200000762939453 C-199.95184326171875,10.199993133544922 -196.1444854736328,14.007328987121582 -196.1444854736328,18.703933715820312 C-196.1444854736328,18.703935623168945 -196.1444854736328,18.703937530517578 -196.1444854736328,18.70393943786621 L-196.14447021484375,18.703937530517578 L-196.14447021484375,49.096065521240234 L-196.1444854736328,49.0960578918457 C-196.1444854736328,53.79265213012695 -199.95181274414062,57.59999465942383 -204.64840698242188,57.599998474121094 L-204.64840698242188,57.599998474121094 L-262.04052734375,57.599998474121094 L-262.04052734375,57.599998474121094 C-266.73712158203125,57.599998474121094 -270.5444641113281,53.792659759521484 -270.5444641113281,49.096065521240234 L-270.5444641113281,18.703937530517578 L-270.54449462890625,18.703941345214844 C-270.54449462890625,14.00734806060791 -266.7371520996094,10.200003623962402 -262.0405578613281,10.199999809265137 " stroke="none" fill="none" stroke-width="0.6" stroke-opacity="0" />
  <path d="M-76.14447784423828,33.899993896484375 C-76.14447784423828,46.989139556884766 -92.79948425292969,57.59999465942383 -113.34445190429688,57.599998474121094 C-133.8894500732422,57.60000228881836 -150.54446411132812,46.989158630371094 -150.5444793701172,33.9000129699707 L-150.5444793701172,33.90001678466797 C-150.54449462890625,20.810869216918945 -133.88949584960938,10.2000093460083 -113.3445053100586,10.200000762939453 C-92.79951477050781,10.199990272521973 -76.14450073242188,20.810832977294922 -76.14447784423828,33.89999771118164 C-76.14447784423828,33.89999771118164 -76.14447784423828,33.89999771118164 -76.14447784423828,33.89999771118164 " stroke="none" fill="#E7E7E7" fill-rule="evenodd" stroke-width="0" fill-opacity="1" />
  <text x="16.430023193359375" y="35.284881591796875" dx="0" dy="0" font-family="Segoe UI" font-size="6.600000157356266pt" fill="#000000" style="text-anchor:start" transform="matrix(0.750000 0.000000 0.000000 0.750000 -150.54446411132812 10.200000762939453)">Buffer Roads</text>
  <path d="M-76.14447784423828,33.899993896484375 C-76.14447784423828,46.989139556884766 -92.79948425292969,57.59999465942383 -113.34445190429688,57.599998474121094 C-133.8894500732422,57.60000228881836 -150.54446411132812,46.989158630371094 -150.5444793701172,33.9000129699707 L-150.5444793701172,33.90001678466797 C-150.54449462890625,20.810869216918945 -133.88949584960938,10.2000093460083 -113.3445053100586,10.200000762939453 C-92.79951477050781,10.199990272521973 -76.14450073242188,20.810832977294922 -76.14447784423828,33.89999771118164 C-76.14447784423828,33.89999771118164 -76.14447784423828,33.89999771118164 -76.14447784423828,33.89999771118164 " stroke="none" fill="none" stroke-width="0.6" stroke-opacity="0" />
  <path d="M-337.7445068359375,29.099992752075195 C-337.7445068359375,42.18913650512695 -354.3995056152344,52.799991607666016 -374.9444580078125,52.79999542236328 C-395.4894714355469,52.79999923706055 -412.14447021484375,42.18915557861328 -412.1445007324219,29.100013732910156 L-412.1445007324219,29.100017547607422 C-412.1445007324219,16.010868072509766 -395.489501953125,5.400008678436279 -374.94451904296875,5.400000095367432 C-354.3995361328125,5.399990081787109 -337.7445068359375,16.010831832885742 -337.7445068359375,29.099998474121094 C-337.7445068359375,29.099998474121094 -337.7445068359375,29.099998474121094 -337.7445068359375,29.099998474121094 " stroke="none" fill="#E7E7E7" fill-rule="evenodd" stroke-width="0" fill-opacity="1" />
  <text x="32.45868682861328" y="35.284881591796875" dx="0" dy="0" font-family="Segoe UI" font-size="6.600000157356266pt" fill="#000000" style="text-anchor:start" transform="matrix(0.750000 0.000000 0.000000 0.750000 -412.14447021484375 5.400000095367432)">Roads</text>
  <path d="M-337.7445068359375,29.099992752075195 C-337.7445068359375,42.18913650512695 -354.3995056152344,52.799991607666016 -374.9444580078125,52.79999542236328 C-395.4894714355469,52.79999923706055 -412.14447021484375,42.18915557861328 -412.1445007324219,29.100013732910156 L-412.1445007324219,29.100017547607422 C-412.1445007324219,16.010868072509766 -395.489501953125,5.400008678436279 -374.94451904296875,5.400000095367432 C-354.3995361328125,5.399990081787109 -337.7445068359375,16.010831832885742 -337.7445068359375,29.099998474121094 C-337.7445068359375,29.099998474121094 -337.7445068359375,29.099998474121094 -337.7445068359375,29.099998474121094 " stroke="none" fill="none" stroke-width="0.6" stroke-opacity="0" />
  <path d="M-80.89605712890625,-69.89999389648438 L-23.503936767578125,-69.89999389648438 L-23.503952026367188,-69.89999389648438 C-18.80736541748047,-69.9000015258789 -15.000007629394531,-66.09266662597656 -15.000007629394531,-61.396060943603516 C-15.000007629394531,-61.396060943603516 -15.000007629394531,-61.39605712890625 -15.000007629394531,-61.39605712890625 L-15,-61.39605712890625 L-15,-31.003929138183594 L-15.000007629394531,-31.003936767578125 C-15.000007629394531,-26.307342529296875 -18.807342529296875,-22.5 -23.503936767578125,-22.499996185302734 L-23.503936767578125,-22.499996185302734 L-80.89605712890625,-22.499996185302734 L-80.89605712890625,-22.499996185302734 C-85.5926513671875,-22.499996185302734 -89.39999389648438,-26.307334899902344 -89.39999389648438,-31.003929138183594 L-89.39999389648438,-61.39605712890625 L-89.4000015258789,-61.396053314208984 C-89.4000015258789,-66.0926513671875 -85.59266662597656,-69.89999389648438 -80.89607238769531,-69.9000015258789 " stroke="none" fill="#E7E7E7" fill-rule="evenodd" stroke-width="0" fill-opacity="1" />
  <text x="28.005189895629883" y="35.284881591796875" dx="0" dy="0" font-family="Segoe UI" font-size="6.600000157356266pt" fill="#000000" style="text-anchor:start" transform="matrix(0.750000 0.000000 0.000000 0.750000 -89.39999389648438 -69.89999389648438)">Intersect</text>
  <path d="M-80.89605712890625,-69.89999389648438 L-23.503936767578125,-69.89999389648438 L-23.503952026367188,-69.89999389648438 C-18.80736541748047,-69.9000015258789 -15.000007629394531,-66.09266662597656 -15.000007629394531,-61.396060943603516 C-15.000007629394531,-61.396060943603516 -15.000007629394531,-61.39605712890625 -15.000007629394531,-61.39605712890625 L-15,-61.39605712890625 L-15,-31.003929138183594 L-15.000007629394531,-31.003936767578125 C-15.000007629394531,-26.307342529296875 -18.807342529296875,-22.5 -23.503936767578125,-22.499996185302734 L-23.503936767578125,-22.499996185302734 L-80.89605712890625,-22.499996185302734 L-80.89605712890625,-22.499996185302734 C-85.5926513671875,-22.499996185302734 -89.39999389648438,-26.307334899902344 -89.39999389648438,-31.003929138183594 L-89.39999389648438,-61.39605712890625 L-89.4000015258789,-61.396053314208984 C-89.4000015258789,-66.0926513671875 -85.59266662597656,-69.89999389648438 -80.89607238769531,-69.9000015258789 " stroke="none" fill="none" stroke-width="0.6" stroke-opacity="0" />
  <path d="M75.59998321533203,-49.20000076293945 C75.59998321533203,-36.11085510253906 58.944976806640625,-25.5 38.40000915527344,-25.499996185302734 C17.855026245117188,-25.49999237060547 1.200014352798462,-36.110836029052734 1.1999971866607666,-49.199981689453125 L1.1999943256378174,-49.19997787475586 C1.199977159500122,-62.289127349853516 17.85497283935547,-72.89998626708984 38.399959564208984,-72.89999389648438 C58.944950103759766,-72.90000915527344 75.59996032714844,-62.289161682128906 75.59998321533203,-49.19999694824219 C75.59998321533203,-49.19999694824219 75.59998321533203,-49.19999694824219 75.59998321533203,-49.19999694824219 " stroke="none" fill="#E7E7E7" fill-rule="evenodd" stroke-width="0" fill-opacity="1" />
  <text x="3.471855640411377" y="35.284881591796875" dx="0" dy="0" font-family="Segoe UI" font-size="6.600000157356266pt" fill="#000000" style="text-anchor:start" transform="matrix(0.750000 0.000000 0.000000 0.750000 1.2000000476837158 -72.89999389648438)">Intersected buffers</text>
  <path d="M75.59998321533203,-49.20000076293945 C75.59998321533203,-36.11085510253906 58.944976806640625,-25.5 38.40000915527344,-25.499996185302734 C17.855026245117188,-25.49999237060547 1.200014352798462,-36.110836029052734 1.1999971866607666,-49.199981689453125 L1.1999943256378174,-49.19997787475586 C1.199977159500122,-62.289127349853516 17.85497283935547,-72.89998626708984 38.399959564208984,-72.89999389648438 C58.944950103759766,-72.90000915527344 75.59996032714844,-62.289161682128906 75.59998321533203,-49.19999694824219 C75.59998321533203,-49.19999694824219 75.59998321533203,-49.19999694824219 75.59998321533203,-49.19999694824219 " stroke="none" fill="none" stroke-width="0.6" stroke-opacity="0" />
  <path d="M113.1971664428711,-71.09862518310547 L170.5892791748047,-71.09862518310547 L170.58926391601562,-71.09862518310547 C175.28585815429688,-71.0986328125 179.0932159423828,-67.29129791259766 179.0932159423828,-62.59469223022461 C179.0932159423828,-62.59469223022461 179.0932159423828,-62.594688415527344 179.0932159423828,-62.594688415527344 L179.0932159423828,-62.594688415527344 L179.0932159423828,-32.20256042480469 L179.0932159423828,-32.20256805419922 C179.0932159423828,-27.50597381591797 175.28587341308594,-23.698631286621094 170.5892791748047,-23.698627471923828 L170.5892791748047,-23.698627471923828 L113.1971664428711,-23.698627471923828 L113.1971664428711,-23.698627471923828 C108.50057220458984,-23.698627471923828 104.69322967529297,-27.505966186523438 104.69322967529297,-32.20256042480469 L104.69322967529297,-62.594688415527344 L104.69322204589844,-62.59468460083008 C104.69322204589844,-67.2912826538086 108.50055694580078,-71.09862518310547 113.19715118408203,-71.0986328125 " stroke="none" fill="#E7E7E7" fill-rule="evenodd" stroke-width="0" fill-opacity="1" />
  <text x="37.60368728637695" y="35.284881591796875" dx="0" dy="0" font-family="Segoe UI" font-size="6.600000157356266pt" fill="#000000" style="text-anchor:start" transform="matrix(0.750000 0.000000 0.000000 0.750000 104.69322967529297 -71.09862518310547)">Clip</text>
  <path d="M113.1971664428711,-71.09862518310547 L170.5892791748047,-71.09862518310547 L170.58926391601562,-71.09862518310547 C175.28585815429688,-71.0986328125 179.0932159423828,-67.29129791259766 179.0932159423828,-62.59469223022461 C179.0932159423828,-62.59469223022461 179.0932159423828,-62.594688415527344 179.0932159423828,-62.594688415527344 L179.0932159423828,-62.594688415527344 L179.0932159423828,-32.20256042480469 L179.0932159423828,-32.20256805419922 C179.0932159423828,-27.50597381591797 175.28587341308594,-23.698631286621094 170.5892791748047,-23.698627471923828 L170.5892791748047,-23.698627471923828 L113.1971664428711,-23.698627471923828 L113.1971664428711,-23.698627471923828 C108.50057220458984,-23.698627471923828 104.69322967529297,-27.505966186523438 104.69322967529297,-32.20256042480469 L104.69322967529297,-62.594688415527344 L104.69322204589844,-62.59468460083008 C104.69322204589844,-67.2912826538086 108.50055694580078,-71.09862518310547 113.19715118408203,-71.0986328125 " stroke="none" fill="none" stroke-width="0.6" stroke-opacity="0" />
  <path d="M280.4931945800781,-47.99863052368164 C280.4931945800781,-34.90948486328125 263.83819580078125,-24.298629760742188 243.29322814941406,-24.298625946044922 C222.74822998046875,-24.298622131347656 206.0932159423828,-34.90946578979492 206.09320068359375,-47.99861145019531 L206.09320068359375,-47.99860763549805 C206.0931854248047,-61.0877571105957 222.74818420410156,-71.69861602783203 243.2931671142578,-71.69862365722656 C263.8381652832031,-71.69863891601562 280.4931640625,-61.087791442871094 280.4931945800781,-47.998626708984375 C280.4931945800781,-47.998626708984375 280.4931945800781,-47.998626708984375 280.4931945800781,-47.998626708984375 " stroke="none" fill="#E7E7E7" fill-rule="evenodd" stroke-width="0" fill-opacity="1" />
  <text x="14.674355506896973" y="35.284881591796875" dx="0" dy="0" font-family="Segoe UI" font-size="6.600000157356266pt" fill="#000000" style="text-anchor:start" transform="matrix(0.750000 0.000000 0.000000 0.750000 206.0932159423828 -71.69862365722656)">Suitable Land</text>
  <path d="M280.4931945800781,-47.99863052368164 C280.4931945800781,-34.90948486328125 263.83819580078125,-24.298629760742188 243.29322814941406,-24.298625946044922 C222.74822998046875,-24.298622131347656 206.0932159423828,-34.90946578979492 206.09320068359375,-47.99861145019531 L206.09320068359375,-47.99860763549805 C206.0931854248047,-61.0877571105957 222.74818420410156,-71.69861602783203 243.2931671142578,-71.69862365722656 C263.8381652832031,-71.69863891601562 280.4931640625,-61.087791442871094 280.4931945800781,-47.998626708984375 C280.4931945800781,-47.998626708984375 280.4931945800781,-47.998626708984375 280.4931945800781,-47.998626708984375 " stroke="none" fill="none" stroke-width="0.6" stroke-opacity="0" />
  <path d="M131.098388671875,-133.19821166992188 C131.098388671875,-120.10905456542969 114.44338989257812,-109.49819946289062 93.89842224121094,-109.49819946289062 C73.35343933105469,-109.4981918334961 56.69842529296875,-120.10903930664062 56.69841003417969,-133.19818115234375 L56.69840621948242,-133.19818115234375 C56.69839096069336,-146.28733825683594 73.35338592529297,-156.898193359375 93.89837646484375,-156.898193359375 C114.44336700439453,-156.89820861816406 131.09837341308594,-146.28736877441406 131.098388671875,-133.1981964111328 C131.098388671875,-133.1981964111328 131.098388671875,-133.1981964111328 131.098388671875,-133.1981964111328 " stroke="none" fill="#E7E7E7" fill-rule="evenodd" stroke-width="0" fill-opacity="1" />
  <text x="20.063356399536133" y="35.284881591796875" dx="0" dy="0" font-family="Segoe UI" font-size="6.600000157356266pt" fill="#000000" style="text-anchor:start" transform="matrix(0.750000 0.000000 0.000000 0.750000 56.69841384887695 -156.898193359375)">Boundaries</text>
  <path d="M131.098388671875,-133.19821166992188 C131.098388671875,-120.10905456542969 114.44338989257812,-109.49819946289062 93.89842224121094,-109.49819946289062 C73.35343933105469,-109.4981918334961 56.69842529296875,-120.10903930664062 56.69841003417969,-133.19818115234375 L56.69840621948242,-133.19818115234375 C56.69839096069336,-146.28733825683594 73.35338592529297,-156.898193359375 93.89837646484375,-156.898193359375 C114.44336700439453,-156.89820861816406 131.09837341308594,-146.28736877441406 131.098388671875,-133.1981964111328 C131.098388671875,-133.1981964111328 131.098388671875,-133.1981964111328 131.098388671875,-133.1981964111328 " stroke="none" fill="none" stroke-width="0.6" stroke-opacity="0" />
  <path d="M-342.7470703125,-65.55000305175781 C-342.7470703125,-52.460853576660156 -359.4020690917969,-41.849998474121094 -379.947021484375,-41.84999465942383 C-400.4920349121094,-41.84999084472656 -417.14703369140625,-52.46083450317383 -417.1470642089844,-65.54998016357422 L-417.1470642089844,-65.54998016357422 C-417.1470642089844,-78.63912963867188 -400.4920654296875,-89.24998474121094 -379.94708251953125,-89.24999237060547 C-359.402099609375,-89.25000762939453 -342.7470703125,-78.63916015625 -342.7470703125,-65.54999542236328 C-342.7470703125,-65.54999542236328 -342.7470703125,-65.54999542236328 -342.7470703125,-65.54999542236328 " stroke="none" fill="#52C0CC" fill-rule="evenodd" stroke-width="0" fill-opacity="1" />
  <text x="17.67702293395996" y="27.96988296508789" dx="0" dy="0" font-family="Segoe UI" font-size="6.600000157356266pt" fill="#000000" style="text-anchor:start" transform="matrix(0.750000 0.000000 0.000000 0.750000 -417.14703369140625 -89.24999237060547)">Cities buffer </text>
  <text x="26.975357055664062" y="42.599884033203125" dx="0" dy="0" font-family="Segoe UI" font-size="6.600000157356266pt" fill="#000000" style="text-anchor:start" transform="matrix(0.750000 0.000000 0.000000 0.750000 -417.14703369140625 -89.24999237060547)">distance</text>
  <path d="M-342.7470703125,-65.55000305175781 C-342.7470703125,-52.460853576660156 -359.4020690917969,-41.849998474121094 -379.947021484375,-41.84999465942383 C-400.4920349121094,-41.84999084472656 -417.14703369140625,-52.46083450317383 -417.1470642089844,-65.54998016357422 L-417.1470642089844,-65.54998016357422 C-417.1470642089844,-78.63912963867188 -400.4920654296875,-89.24998474121094 -379.94708251953125,-89.24999237060547 C-359.402099609375,-89.25000762939453 -342.7470703125,-78.63916015625 -342.7470703125,-65.54999542236328 C-342.7470703125,-65.54999542236328 -342.7470703125,-65.54999542236328 -342.7470703125,-65.54999542236328 " stroke="none" fill="none" stroke-width="0.6" stroke-opacity="0" />
  <path d="M-328.1445007324219,103.49999237060547 C-328.1445007324219,116.58914184570312 -344.79949951171875,127.19999694824219 -365.3444519042969,127.19999694824219 C-385.88946533203125,127.20000457763672 -402.5444641113281,116.58915710449219 -402.54449462890625,103.50001525878906 L-402.54449462890625,103.50001525878906 C-402.54449462890625,90.4108657836914 -385.8894958496094,79.80001068115234 -365.3445129394531,79.80000305175781 C-344.7995300292969,79.79998779296875 -328.1445007324219,90.41083526611328 -328.1445007324219,103.5 C-328.1445007324219,103.5 -328.1445007324219,103.5 -328.1445007324219,103.5 " stroke="none" fill="#52C0CC" fill-rule="evenodd" stroke-width="0" fill-opacity="1" />
  <text x="16.37202262878418" y="27.96988296508789" dx="0" dy="0" font-family="Segoe UI" font-size="6.600000157356266pt" fill="#000000" style="text-anchor:start" transform="matrix(0.750000 0.000000 0.000000 0.750000 -402.5444641113281 79.80000305175781)">Roads buffer </text>
  <text x="26.975357055664062" y="42.599884033203125" dx="0" dy="0" font-family="Segoe UI" font-size="6.600000157356266pt" fill="#000000" style="text-anchor:start" transform="matrix(0.750000 0.000000 0.000000 0.750000 -402.5444641113281 79.80000305175781)">distance</text>
  <path d="M-328.1445007324219,103.49999237060547 C-328.1445007324219,116.58914184570312 -344.79949951171875,127.19999694824219 -365.3444519042969,127.19999694824219 C-385.88946533203125,127.20000457763672 -402.5444641113281,116.58915710449219 -402.54449462890625,103.50001525878906 L-402.54449462890625,103.50001525878906 C-402.54449462890625,90.4108657836914 -385.8894958496094,79.80001068115234 -365.3445129394531,79.80000305175781 C-344.7995300292969,79.79998779296875 -328.1445007324219,90.41083526611328 -328.1445007324219,103.5 C-328.1445007324219,103.5 -328.1445007324219,103.5 -328.1445007324219,103.5 " stroke="none" fill="none" stroke-width="0.6" stroke-opacity="0" />
  <path d="M-333.2970886230469,-158.86953735351562 C-333.2970886230469,-154.72740173339844 -336.6549377441406,-151.36953735351562 -340.79705810546875,-151.36953735351562 C-344.939208984375,-151.36952209472656 -348.29705810546875,-154.72738647460938 -348.29705810546875,-158.86952209472656 L-348.2970886230469,-158.86952209472656 C-348.2970886230469,-163.01165771484375 -344.939208984375,-166.36952209472656 -340.7970886230469,-166.36952209472656 C-336.6549377441406,-166.36953735351562 -333.2970886230469,-163.0116729736328 -333.2970886230469,-158.86953735351562 C-333.2970886230469,-158.86953735351562 -333.2970886230469,-158.86952209472656 -333.2970886230469,-158.86952209472656 " stroke="none" fill="none" fill-rule="evenodd" stroke-width="0" fill-opacity="0" />
  <text x="2.7061891555786133" y="15.29671859741211" dx="0" dy="0" font-family="Arial" font-size="7.200000171661381pt" fill="#ADADAD" style="text-anchor:start" font-weight="bold" transform="matrix(0.750000 0.000000 0.000000 0.750000 -348.29705810546875 -166.36952209472656)">P</text>
  <path d="M-333.2970886230469,-158.86953735351562 C-333.2970886230469,-154.72740173339844 -336.6549377441406,-151.36953735351562 -340.79705810546875,-151.36953735351562 C-344.939208984375,-151.36952209472656 -348.29705810546875,-154.72738647460938 -348.29705810546875,-158.86952209472656 L-348.2970886230469,-158.86952209472656 C-348.2970886230469,-163.01165771484375 -344.939208984375,-166.36952209472656 -340.7970886230469,-166.36952209472656 C-336.6549377441406,-166.36953735351562 -333.2970886230469,-163.0116729736328 -333.2970886230469,-158.86953735351562 C-333.2970886230469,-158.86953735351562 -333.2970886230469,-158.86952209472656 -333.2970886230469,-158.86952209472656 " stroke="none" fill="none" stroke-width="0.6" stroke-opacity="0" />
  <path d="M138.59840393066406,-150.33570861816406 C138.59840393066406,-146.19357299804688 135.24053955078125,-142.83570861816406 131.09840393066406,-142.83570861816406 C126.9562759399414,-142.835693359375 123.5984115600586,-146.1935577392578 123.5984115600586,-150.335693359375 L123.59840393066406,-150.335693359375 C123.59840393066406,-154.4778289794922 126.95626831054688,-157.835693359375 131.098388671875,-157.835693359375 C135.2405242919922,-157.83570861816406 138.598388671875,-154.47784423828125 138.59840393066406,-150.33570861816406 C138.59840393066406,-150.33570861816406 138.59840393066406,-150.335693359375 138.59840393066406,-150.335693359375 " stroke="none" fill="none" fill-rule="evenodd" stroke-width="0" fill-opacity="0" />
  <text x="2.7061891555786133" y="15.29671859741211" dx="0" dy="0" font-family="Arial" font-size="7.200000171661381pt" fill="#ADADAD" style="text-anchor:start" font-weight="bold" transform="matrix(0.750000 0.000000 0.000000 0.750000 123.5984115600586 -157.835693359375)">P</text>
  <path d="M138.59840393066406,-150.33570861816406 C138.59840393066406,-146.19357299804688 135.24053955078125,-142.83570861816406 131.09840393066406,-142.83570861816406 C126.9562759399414,-142.835693359375 123.5984115600586,-146.1935577392578 123.5984115600586,-150.335693359375 L123.59840393066406,-150.335693359375 C123.59840393066406,-154.4778289794922 126.95626831054688,-157.835693359375 131.098388671875,-157.835693359375 C135.2405242919922,-157.83570861816406 138.598388671875,-154.47784423828125 138.59840393066406,-150.33570861816406 C138.59840393066406,-150.33570861816406 138.59840393066406,-150.335693359375 138.59840393066406,-150.335693359375 " stroke="none" fill="none" stroke-width="0.6" stroke-opacity="0" />
  <path d="M-320.6445007324219,86.36249542236328 C-320.6445007324219,90.50463104248047 -324.0023498535156,93.86249542236328 -328.14447021484375,93.86249542236328 C-332.28662109375,93.86250305175781 -335.64447021484375,90.504638671875 -335.64447021484375,86.36250305175781 L-335.6445007324219,86.36250305175781 C-335.6445007324219,82.22036743164062 -332.28662109375,78.86250305175781 -328.1445007324219,78.86250305175781 C-324.0023498535156,78.86249542236328 -320.6445007324219,82.22035217285156 -320.6445007324219,86.36249542236328 C-320.6445007324219,86.36249542236328 -320.6445007324219,86.36250305175781 -320.6445007324219,86.36250305175781 " stroke="none" fill="none" fill-rule="evenodd" stroke-width="0" fill-opacity="0" />
  <text x="2.7061891555786133" y="15.29671859741211" dx="0" dy="0" font-family="Arial" font-size="7.200000171661381pt" fill="#ADADAD" style="text-anchor:start" font-weight="bold" transform="matrix(0.750000 0.000000 0.000000 0.750000 -335.64447021484375 78.86250305175781)">P</text>
  <path d="M-320.6445007324219,86.36249542236328 C-320.6445007324219,90.50463104248047 -324.0023498535156,93.86249542236328 -328.14447021484375,93.86249542236328 C-332.28662109375,93.86250305175781 -335.64447021484375,90.504638671875 -335.64447021484375,86.36250305175781 L-335.6445007324219,86.36250305175781 C-335.6445007324219,82.22036743164062 -332.28662109375,78.86250305175781 -328.1445007324219,78.86250305175781 C-324.0023498535156,78.86249542236328 -320.6445007324219,82.22035217285156 -320.6445007324219,86.36249542236328 C-320.6445007324219,86.36249542236328 -320.6445007324219,86.36250305175781 -320.6445007324219,86.36250305175781 " stroke="none" fill="none" stroke-width="0.6" stroke-opacity="0" />
  <path d="M-330.2444763183594,11.962498664855957 C-330.2444763183594,16.104631423950195 -333.6023254394531,19.46249771118164 -337.74444580078125,19.46249771118164 C-341.8865966796875,19.462499618530273 -345.24444580078125,16.104639053344727 -345.24444580078125,11.962504386901855 L-345.2444763183594,11.962505340576172 C-345.2444763183594,7.820370197296143 -341.8865966796875,4.462502956390381 -337.7444763183594,4.462500095367432 C-333.6023254394531,4.462492942810059 -330.2444763183594,7.820352554321289 -330.2444763183594,11.962498664855957 C-330.2444763183594,11.962498664855957 -330.2444763183594,11.962499618530273 -330.2444763183594,11.96250057220459 " stroke="none" fill="none" fill-rule="evenodd" stroke-width="0" fill-opacity="0" />
  <text x="2.7061891555786133" y="15.29671859741211" dx="0" dy="0" font-family="Arial" font-size="7.200000171661381pt" fill="#ADADAD" style="text-anchor:start" font-weight="bold" transform="matrix(0.750000 0.000000 0.000000 0.750000 -345.24444580078125 4.462500095367432)">P</text>
  <path d="M-330.2444763183594,11.962498664855957 C-330.2444763183594,16.104631423950195 -333.6023254394531,19.46249771118164 -337.74444580078125,19.46249771118164 C-341.8865966796875,19.462499618530273 -345.24444580078125,16.104639053344727 -345.24444580078125,11.962504386901855 L-345.2444763183594,11.962505340576172 C-345.2444763183594,7.820370197296143 -341.8865966796875,4.462502956390381 -337.7444763183594,4.462500095367432 C-333.6023254394531,4.462492942810059 -330.2444763183594,7.820352554321289 -330.2444763183594,11.962498664855957 C-330.2444763183594,11.962498664855957 -330.2444763183594,11.962499618530273 -330.2444763183594,11.96250057220459 " stroke="none" fill="none" stroke-width="0.6" stroke-opacity="0" />
  <path d="M-335.2470703125,-82.6875 C-335.2470703125,-78.54536437988281 -338.60491943359375,-75.1875 -342.7470397949219,-75.1875 C-346.8891906738281,-75.18749237060547 -350.2470397949219,-78.54535675048828 -350.2470397949219,-82.68749237060547 L-350.2470703125,-82.68749237060547 C-350.2470703125,-86.82962799072266 -346.8891906738281,-90.18749237060547 -342.7470703125,-90.18749237060547 C-338.60491943359375,-90.1875 -335.2470703125,-86.82964324951172 -335.2470703125,-82.6875 C-335.2470703125,-82.6875 -335.2470703125,-82.68749237060547 -335.2470703125,-82.68749237060547 " stroke="none" fill="none" fill-rule="evenodd" stroke-width="0" fill-opacity="0" />
  <text x="2.7061891555786133" y="15.29671859741211" dx="0" dy="0" font-family="Arial" font-size="7.200000171661381pt" fill="#ADADAD" style="text-anchor:start" font-weight="bold" transform="matrix(0.750000 0.000000 0.000000 0.750000 -350.2470397949219 -90.18749237060547)">P</text>
  <path d="M-335.2470703125,-82.6875 C-335.2470703125,-78.54536437988281 -338.60491943359375,-75.1875 -342.7470397949219,-75.1875 C-346.8891906738281,-75.18749237060547 -350.2470397949219,-78.54535675048828 -350.2470397949219,-82.68749237060547 L-350.2470703125,-82.68749237060547 C-350.2470703125,-86.82962799072266 -346.8891906738281,-90.18749237060547 -342.7470703125,-90.18749237060547 C-338.60491943359375,-90.1875 -335.2470703125,-86.82964324951172 -335.2470703125,-82.6875 C-335.2470703125,-82.6875 -335.2470703125,-82.68749237060547 -335.2470703125,-82.68749237060547 " stroke="none" fill="none" stroke-width="0.6" stroke-opacity="0" />
</svg>